:SAMPLES-PER-SECOND 30
:FULLY-SPECIFIED
:DEGREES
274
root  2.96812 36.9669 -0.736961 47.4337 -85.1521 -42.594
RightUpLeg  -17.0245 -11.4151 -17.7457
RightLeg  15.4187 -1.25492 -0.705126
RightFoot  3.23512 -3.65553 28.2175
RightToes  -2.32832e-010 0 -3.6325e-017
Spine  23.4344 1.95267 -2.20496
Spine1  -29.2355 2.34027 9.83528
HEad  -21.3347 1.56229 -9.15205
LeftShoulder1  0.324054 9.90624 15.4239
LeftArm  -51.9232 -11.7085 0.830463
LeftForeArm  -76.7027 -9.1343 3.35803
LeftHand  1.03666 -1.75732 -16.6233
RightShoulder  0.175403 -8.52467 -13.5412
RightArm  -63.2006 24.5396 -9.75752
RightForeArm  -71.2113 13.5007 -3.7479
RightHand  0.30241 -1.6394 9.75145
LeftUpLeg  -11.2936 12.2589 28.9051
LeftLeg  14.4851 5.84937 3.07893
LeftFoot  1.36018 3.33521 -29.4397
LeftToes  2.2737e-010 4.38529e-011 2.18788e-011
275
root  2.96183 37.0775 -0.672892 48.8733 -82.0882 -44.2076
RightUpLeg  -14.275 -11.1292 -15.8986
RightLeg  12.477 -3.84343 -1.58771
RightFoot  4.28739 -3.96511 28.5508
RightToes  -2.32832e-010 0 -3.6325e-017
Spine  22.896 1.66294 -3.72437
Spine1  -27.2251 2.03162 16.5758
HEad  -22.7749 1.817 -9.8777
LeftShoulder1  0.250455 9.38378 14.5153
LeftArm  -50.8768 -9.22441 -0.834043
LeftForeArm  -78.8302 -8.14276 3.92167
LeftHand  0.933369 -1.27607 -16.1029
RightShoulder  0.144567 -8.6813 -12.7494
RightArm  -61.373 24.0417 -10.4682
RightForeArm  -70.0982 13.2576 -3.31725
RightHand  0.313339 -1.50216 9.70434
LeftUpLeg  -12.7024 9.42381 30.6161
LeftLeg  14.6278 6.70753 3.38806
LeftFoot  1.88763 3.37817 -28.674
LeftToes  2.2737e-010 4.38529e-011 2.18788e-011
276
root  2.98475 37.1215 -0.389172 31.5798 -82.2956 -26.5553
RightUpLeg  -13.6412 -11.3948 -18.3818
RightLeg  11.6596 -4.73379 -2.10954
RightFoot  4.84622 -4.17888 29.0372
RightToes  -2.32832e-010 0 -3.6325e-017
Spine  21.8139 1.10862 -4.52312
Spine1  -25.1159 1.05061 15.3487
HEad  -24.0572 0.83559 -8.46426
LeftShoulder1  0.22381 9.1941 14.1388
LeftArm  -51.0837 -9.06814 -1.9104
LeftForeArm  -80.7006 -7.25257 4.48734
LeftHand  0.859308 -0.86209 -15.8601
RightShoulder  0.083232 -8.59775 -11.4348
RightArm  -61.9637 20.5701 -9.41748
RightForeArm  -66.2279 15.4521 -1.79967
RightHand  0.34262 -1.31842 10.0681
LeftUpLeg  -13.476 9.25807 27.7806
LeftLeg  14.3333 6.01847 3.29802
LeftFoot  1.91372 3.38382 -28.6705
LeftToes  2.2737e-010 4.38529e-011 2.18788e-011
277
root  3.0611 37.073 0.0464543 -3.53155 -83.5991 8.89073
RightUpLeg  -14.6209 -11.7903 -23.9564
RightLeg  12.7354 -3.77594 -2.02068
RightFoot  4.84119 -4.21445 29.281
RightToes  -2.32832e-010 0 -3.6325e-017
Spine  21.3673 0.37622 -3.85527
Spine1  -24.2224 0.101519 7.29587
HEad  -23.8489 -0.534747 -6.23272
LeftShoulder1  0.210768 9.06117 13.9773
LeftArm  -51.3398 -10.1961 -2.1382
LeftForeArm  -81.6143 -6.6248 4.73563
LeftHand  0.828266 -0.676007 -15.7797
RightShoulder  0.00775911 -8.22782 -9.76005
RightArm  -62.5477 16.3529 -7.44192
RightForeArm  -62.6389 17.6114 0.0656129
RightHand  0.368018 -1.18279 10.4225
LeftUpLeg  -13.1244 11.8657 22.2687
LeftLeg  14.0057 3.84412 2.46164
LeftFoot  1.24459 3.29216 -29.3308
LeftToes  2.2737e-010 4.38529e-011 2.18788e-011
278
root  3.19072 36.9173 0.508528 -49.3653 -82.2392 54.2284
RightUpLeg  -15.9862 -10.5353 -31.0422
RightLeg  15.0544 -3.09902 -1.43833
RightFoot  4.31418 -4.00564 28.7786
RightToes  -2.32832e-010 0 -3.6325e-017
Spine  22.4967 -0.258743 -2.8646
Spine1  -24.6052 -0.660646 -3.10541
HEad  -22.5397 -1.6797 -4.34403
LeftShoulder1  0.204401 9.2255 13.7314
LeftArm  -51.181 -11.8854 -1.70346
LeftForeArm  -81.5405 -5.95794 4.65749
LeftHand  0.79336 -0.584961 -15.3609
RightShoulder  -0.0426194 -7.44557 -8.34313
RightArm  -59.9396 12.9134 -5.64808
RightForeArm  -63.0525 18.0055 0.613898
RightHand  0.355589 -1.31941 10.4406
LeftUpLeg  -11.7126 14.216 16.4112
LeftLeg  14.3291 2.58897 1.2932
LeftFoot  0.12909 3.05684 -29.8118
LeftToes  2.2737e-010 4.38529e-011 2.18788e-011
279
root  3.34832 36.6593 0.865736 -74.4161 -78.2823 78.1207
RightUpLeg  -17.737 -8.59756 -37.5585
RightLeg  18.1987 -2.37904 -1.04777
RightFoot  3.4149 -3.61094 27.5628
RightToes  -2.32832e-010 0 -3.6325e-017
Spine  24.2398 -0.571407 -2.95925
Spine1  -24.4751 -1.27497 -11.7804
HEad  -22.121 -2.28139 -2.8648
LeftShoulder1  0.227541 10.2176 13.5124
LeftArm  -51.4616 -13.7044 -1.22483
LeftForeArm  -80.7859 -5.51626 4.50426
LeftHand  0.753345 -0.495163 -14.8272
RightShoulder  -0.0564044 -6.39575 -7.33549
RightArm  -55.6297 10.4029 -4.37367
RightForeArm  -66.8875 16.9412 -0.326628
RightHand  0.29566 -1.82738 10.0827
LeftUpLeg  -10.0262 15.1655 11.4632
LeftLeg  15.5419 2.92253 0.329048
LeftFoot  -1.12262 2.72695 -29.7939
LeftToes  2.2737e-010 4.38529e-011 2.18788e-011
280
root  3.46917 36.3648 0.977467 -85.3316 -74.927 88.0264
RightUpLeg  -20.0217 -7.3786 -41.7125
RightLeg  21.5477 -1.15348 -0.705717
RightFoot  2.43523 -3.23905 26.5101
RightToes  -2.32832e-010 0 -3.6325e-017
Spine  24.9864 -0.578941 -3.77075
Spine1  -22.3712 -1.36728 -17.5865
HEad  -23.4189 -2.33594 -1.41174
LeftShoulder1  0.27856 11.6311 13.5529
LeftArm  -52.8664 -14.7759 -1.19241
LeftForeArm  -79.6955 -5.96289 4.5215
LeftHand  0.784048 -0.638285 -15.0374
RightShoulder  -0.0655975 -5.71241 -6.18484
RightArm  -53.0434 8.70913 -3.14974
RightForeArm  -71.1582 15.7428 -1.51877
RightHand  0.23047 -2.41533 9.69737
LeftUpLeg  -8.73905 16.3917 8.43761
LeftLeg  16.854 2.86444 -0.382977
LeftFoot  -2.17559 2.47392 -30.063
LeftToes  2.2737e-010 4.38529e-011 2.18788e-011
281
root  3.50769 36.138 0.791354 -89.955 -74.354 92.2899
RightUpLeg  -22.0106 -8.07156 -41.986
RightLeg  24.2892 0.70629 0.13763
RightFoot  1.52652 -3.03289 26.547
RightToes  -2.32832e-010 0 -3.6325e-017
Spine  24.4862 -0.402207 -4.13061
Spine1  -19.5141 -0.847891 -19.594
HEad  -24.5655 -2.04673 -0.392109
LeftShoulder1  0.291986 12.2092 13.4741
LeftArm  -54.1424 -14.2867 -1.73814
LeftForeArm  -78.7698 -7.17517 4.54563
LeftHand  0.912374 -1.1297 -16.1067
RightShoulder  -0.0988502 -5.75144 -4.59534
RightArm  -52.9309 8.01423 -1.5978
RightForeArm  -73.6397 15.4005 -2.08998
RightHand  0.20301 -2.74405 9.79795
LeftUpLeg  -8.46545 18.2874 8.52296
LeftLeg  18.0276 1.34797 -0.5607
LeftFoot  -2.99254 2.34333 -31.1418
LeftToes  2.2737e-010 4.38529e-011 2.18788e-011
282
root  3.49777 36.0653 0.397489 -89.3708 -77.5913 91.9293
RightUpLeg  -22.6027 -10.6678 -37.7548
RightLeg  25.6221 2.6449 1.15879
RightFoot  0.846161 -2.97051 27.3837
RightToes  -2.32832e-010 0 -3.6325e-017
Spine  23.8237 0.0531378 -3.96482
Spine1  -18.3624 -0.204171 -15.8018
HEad  -23.4763 -1.4758 -0.960556
LeftShoulder1  0.196012 11.3351 12.4777
LeftArm  -53.0155 -12.1877 -2.87668
LeftForeArm  -78.5245 -8.21875 4.15463
LeftHand  1.0328 -1.52957 -17.1344
RightShoulder  -0.142907 -5.98583 -3.03
RightArm  -53.0716 8.53859 -0.374036
RightForeArm  -74.2046 15.5099 -2.02949
RightHand  0.195509 -2.93584 10.2759
LeftUpLeg  -9.73195 17.9844 12.0899
LeftLeg  19.4878 0.748928 0.348008
LeftFoot  -3.44882 2.29322 -32.1378
LeftToes  2.2737e-010 4.38529e-011 2.18788e-011
283
root  3.49551 36.1379 -0.0239914 -65.8565 -83.618 68.6865
RightUpLeg  -21.4867 -13.1721 -30.0604
RightLeg  24.9432 3.30004 1.45826
RightFoot  0.692834 -2.99782 27.9575
RightToes  -2.32832e-010 0 -3.6325e-017
Spine  23.7717 0.866824 -3.49987
Spine1  -19.3184 0.461283 -5.99605
HEad  -20.6642 -0.404142 -3.55592
LeftShoulder1  0.0363274 9.56914 10.3042
LeftArm  -49.0879 -8.82363 -4.50503
LeftForeArm  -78.7695 -8.58347 3.2664
LeftHand  1.0304 -1.39265 -17.4448
RightShoulder  -0.156095 -5.8947 -2.17752
RightArm  -51.3925 10.3145 -0.367286
RightForeArm  -74.528 14.936 -1.97384
RightHand  0.174555 -3.1736 10.3635
LeftUpLeg  -12.0166 13.8232 18.9846
LeftLeg  21.4747 3.16026 1.74583
LeftFoot  -3.36181 2.29246 -31.8125
LeftToes  2.2737e-010 4.38529e-011 2.18788e-011
284
root  3.48665 36.2708 -0.338082 12.1107 -86.7596 -9.42368
RightUpLeg  -19.1451 -13.7886 -21.4981
RightLeg  22.3713 2.09196 0.744
RightFoot  1.22867 -3.12579 27.9353
RightToes  -2.32832e-010 0 -3.6325e-017
Spine  23.8048 1.82745 -2.76345
Spine1  -20.1387 1.38579 6.27681
HEad  -18.3036 1.10813 -6.86053
LeftShoulder1  -0.0731817 7.8696 7.77041
LeftArm  -44.6841 -4.88036 -6.41505
LeftForeArm  -78.6595 -8.64447 2.30315
LeftHand  0.945269 -0.935644 -17.2178
RightShoulder  -0.144094 -5.71227 -2.17923
RightArm  -49.1529 12.8547 -1.24926
RightForeArm  -75.1311 13.5893 -2.14842
RightHand  0.152192 -3.28713 9.73101
LeftUpLeg  -13.9691 10.2103 27.2042
LeftLeg  23.165 5.04005 2.68977
LeftFoot  -2.81889 2.33611 -30.4606
LeftToes  2.2737e-010 4.38529e-011 2.18788e-011
